<?xml version="1.0" encoding="utf-8"?>
<!-- Generator: Adobe Illustrator 25.2.2, SVG Export Plug-In . SVG Version: 6.00 Build 0)  -->
<svg version="1.1" xmlns="http://www.w3.org/2000/svg" xmlns:xlink="http://www.w3.org/1999/xlink" x="0px" y="0px"
	 viewBox="0 0 254 62" style="enable-background:new 0 0 254 62;" xml:space="preserve">
<style type="text/css">
	.st0{fill:#FFFFFF;}
	.st1{fill:#008D36;}
</style>
<g id="Calque_2">
</g>
<g id="Calque_4">
</g>
<g id="Calque_3">
	<g>
		<polygon class="st0" points="52.65,20.58 71.15,43.53 57.59,43.53 44.35,25.47 		"/>
		<path class="st1" d="M70.34,1.01h-9.91C55.5,14.84,42.39,24.23,27.44,24.23v9.46C47.55,33.7,65.04,20.31,70.34,1.01z"/>
		<path class="st0" d="M43.83,22.02v21.51H32.58V1.01h11.25v18.44V22.02z"/>
		<path class="st0" d="M125.16,1.01v42.51h-9.99l-0.32-24.88l-8.63,14.57h-8.5l-8.03-14.88l-0.01,25.19H78.78V1.01H89.4l12.57,20.82
			l12.56-20.82H125.16z"/>
		<path class="st0" d="M166.42,8.95h-11.56v34.57H143.6V8.95h-11.56V1.01h34.38V8.95z"/>
		<path class="st0" d="M204.25,4.39c2.79,2.25,4.19,5.82,4.19,10.69s-1.4,8.44-4.19,10.69c-2.79,2.25-7.23,3.38-13.32,3.38h-6.37
			v14.38H173.3V1.01h17.63C197.01,1.01,201.45,2.14,204.25,4.39z M195.74,19.8c0.96-0.98,1.44-2.55,1.44-4.72
			c0-2.21-0.48-3.8-1.44-4.78c-0.96-0.98-2.56-1.47-4.82-1.47h-6.37v12.51h6.37C193.18,21.29,194.79,20.78,195.74,19.8z"/>
	</g>
	<g>
		<path class="st0" d="M109.9,51.43h3.65v1.48h-0.68v4.87h0.68v1.49h-3.65v-1.49h0.69v-4.87h-0.69V51.43z"/>
		<path class="st0" d="M117.71,59.28h-3.39v-1.47h0.46v-2.68h-0.46v-1.46h2.34l0.25,0.7c0.19-0.26,0.41-0.48,0.67-0.65
			c0.25-0.17,0.56-0.25,0.91-0.25c0.42,0,0.77,0.07,1.03,0.22c0.26,0.15,0.46,0.34,0.6,0.57c0.14,0.24,0.24,0.5,0.29,0.8
			c0.05,0.29,0.07,0.59,0.07,0.88v1.87H121v1.47h-2.77v-3.06c0-0.1,0-0.21,0-0.33c0-0.12-0.02-0.23-0.06-0.34
			c-0.04-0.1-0.1-0.19-0.18-0.27c-0.08-0.07-0.21-0.11-0.37-0.11c-0.14,0-0.25,0.03-0.35,0.1s-0.16,0.15-0.21,0.25
			c-0.05,0.1-0.09,0.21-0.1,0.34c-0.02,0.12-0.03,0.25-0.03,0.37v1.59h0.79V59.28z"/>
		<path class="st0" d="M121.55,53.67h0.59v-1.03l2.02-0.66v1.69h1.04v1.46h-1.04v2c0,0.05,0,0.11-0.01,0.16c0,0.05,0,0.11,0,0.17
			c0,0.15,0.02,0.28,0.06,0.4c0.04,0.12,0.14,0.17,0.3,0.17c0.07,0,0.18-0.02,0.33-0.06c0.14-0.04,0.27-0.08,0.37-0.13v1.44
			c-0.08,0.04-0.18,0.07-0.31,0.09c-0.12,0.03-0.25,0.05-0.38,0.06c-0.13,0.02-0.25,0.03-0.37,0.04c-0.11,0.01-0.2,0.02-0.27,0.02
			c-0.41,0-0.73-0.06-0.96-0.17c-0.23-0.11-0.4-0.27-0.51-0.47c-0.11-0.2-0.18-0.45-0.21-0.74c-0.03-0.29-0.05-0.62-0.06-0.98v-2
			h-0.59V53.67z"/>
		<path class="st0" d="M131.4,58.5c-0.41,0.36-0.84,0.61-1.3,0.76c-0.46,0.15-0.97,0.22-1.54,0.22c-0.34,0-0.69-0.06-1.03-0.17
			c-0.34-0.12-0.65-0.3-0.93-0.54c-0.27-0.24-0.5-0.56-0.68-0.94c-0.18-0.38-0.26-0.85-0.26-1.39c0-0.46,0.08-0.87,0.23-1.23
			c0.15-0.36,0.36-0.67,0.63-0.92c0.26-0.25,0.58-0.45,0.93-0.58s0.75-0.2,1.17-0.2c0.46,0,0.86,0.07,1.21,0.2
			c0.35,0.13,0.64,0.32,0.87,0.56s0.41,0.52,0.53,0.85c0.12,0.33,0.18,0.68,0.18,1.06c0,0.15-0.01,0.3-0.03,0.44
			c-0.02,0.15-0.05,0.28-0.1,0.41h-3.46c0.01,0.08,0.04,0.17,0.07,0.27s0.09,0.21,0.17,0.3c0.08,0.1,0.19,0.18,0.33,0.25
			c0.14,0.07,0.33,0.1,0.56,0.1c0.09,0,0.2,0,0.31-0.01s0.24-0.03,0.37-0.07c0.13-0.04,0.27-0.09,0.42-0.16
			c0.15-0.07,0.29-0.17,0.44-0.3L131.4,58.5z M128.68,55.02c-0.17,0-0.31,0.03-0.41,0.1c-0.11,0.07-0.19,0.15-0.25,0.24
			c-0.06,0.09-0.11,0.19-0.13,0.3c-0.03,0.1-0.04,0.19-0.05,0.26h1.66c0-0.1-0.01-0.21-0.03-0.32c-0.02-0.11-0.06-0.21-0.12-0.29
			c-0.05-0.09-0.14-0.16-0.24-0.21C129,55.05,128.86,55.02,128.68,55.02z"/>
		<path class="st0" d="M135.17,59.28h-3.11v-1.47h0.48v-2.68h-0.47v-1.46h2.07l0.33,0.72c0.07-0.13,0.15-0.26,0.23-0.38
			c0.08-0.12,0.18-0.23,0.31-0.32c0.12-0.09,0.28-0.17,0.46-0.22c0.18-0.05,0.42-0.08,0.7-0.08v2.02c-0.5,0-0.88,0.08-1.15,0.25
			s-0.4,0.5-0.4,0.99v1.16h0.55V59.28z"/>
		<path class="st0" d="M140.22,59.28h-3.39v-1.47h0.46v-2.68h-0.46v-1.46h2.34l0.25,0.7c0.19-0.26,0.41-0.48,0.67-0.65
			c0.25-0.17,0.56-0.25,0.91-0.25c0.42,0,0.77,0.07,1.03,0.22c0.26,0.15,0.46,0.34,0.6,0.57c0.14,0.24,0.24,0.5,0.29,0.8
			c0.05,0.29,0.07,0.59,0.07,0.88v1.87h0.52v1.47h-2.77v-3.06c0-0.1,0-0.21,0-0.33c0-0.12-0.02-0.23-0.06-0.34
			c-0.04-0.1-0.1-0.19-0.18-0.27c-0.08-0.07-0.21-0.11-0.37-0.11c-0.14,0-0.25,0.03-0.35,0.1s-0.16,0.15-0.21,0.25
			c-0.05,0.1-0.09,0.21-0.1,0.34c-0.02,0.12-0.03,0.25-0.03,0.37v1.59h0.79V59.28z"/>
		<path class="st0" d="M144.29,54.14c0.11-0.07,0.25-0.15,0.42-0.24c0.17-0.09,0.36-0.18,0.57-0.26s0.43-0.16,0.67-0.21
			c0.24-0.06,0.49-0.08,0.74-0.08c0.33,0,0.67,0.04,1.02,0.11c0.35,0.07,0.67,0.19,0.96,0.37s0.53,0.41,0.71,0.71
			c0.19,0.3,0.28,0.67,0.28,1.12v2.19h0.66v1.44h-2.35l-0.26-0.5c-0.1,0.14-0.22,0.26-0.35,0.35c-0.13,0.09-0.26,0.17-0.4,0.22
			c-0.14,0.05-0.27,0.09-0.4,0.11s-0.25,0.03-0.34,0.03c-0.26,0-0.52-0.04-0.78-0.11c-0.26-0.07-0.49-0.19-0.69-0.34
			c-0.21-0.15-0.37-0.34-0.5-0.58c-0.13-0.24-0.19-0.52-0.19-0.85c0-0.31,0.06-0.6,0.18-0.85c0.12-0.25,0.29-0.47,0.5-0.65
			s0.45-0.32,0.73-0.42c0.28-0.1,0.57-0.15,0.88-0.15c0.16,0,0.31,0.02,0.43,0.05c0.13,0.03,0.24,0.07,0.33,0.12
			s0.17,0.09,0.22,0.13s0.09,0.08,0.1,0.09v-0.39c0-0.25-0.1-0.42-0.3-0.5s-0.45-0.12-0.75-0.12c-0.33,0-0.63,0.06-0.91,0.17
			c-0.28,0.11-0.52,0.23-0.73,0.35L144.29,54.14z M146.73,58.03c0.17,0,0.32-0.04,0.44-0.12c0.12-0.08,0.21-0.17,0.26-0.25v-0.43
			c-0.01-0.01-0.02-0.04-0.05-0.07c-0.03-0.03-0.06-0.07-0.12-0.11c-0.05-0.04-0.12-0.07-0.19-0.1s-0.17-0.04-0.29-0.04
			c-0.22,0-0.38,0.06-0.48,0.17s-0.15,0.25-0.15,0.43c0,0.16,0.05,0.28,0.17,0.38C146.42,57.98,146.56,58.03,146.73,58.03z"/>
		<path class="st0" d="M150.88,53.67h0.59v-1.03l2.02-0.66v1.69h1.04v1.46h-1.04v2c0,0.05,0,0.11-0.01,0.16c0,0.05,0,0.11,0,0.17
			c0,0.15,0.02,0.28,0.06,0.4c0.04,0.12,0.14,0.17,0.3,0.17c0.07,0,0.18-0.02,0.33-0.06c0.14-0.04,0.27-0.08,0.37-0.13v1.44
			c-0.08,0.04-0.18,0.07-0.31,0.09c-0.12,0.03-0.25,0.05-0.38,0.06c-0.13,0.02-0.25,0.03-0.37,0.04c-0.11,0.01-0.2,0.02-0.27,0.02
			c-0.41,0-0.73-0.06-0.96-0.17c-0.23-0.11-0.4-0.27-0.51-0.47c-0.11-0.2-0.18-0.45-0.21-0.74c-0.03-0.29-0.05-0.62-0.06-0.98v-2
			h-0.59V53.67z"/>
		<path class="st0" d="M158.28,59.28h-3.08v-1.47h0.46v-2.68h-0.46v-1.46h2.55v4.14h0.53V59.28z M155.51,52.03
			c0-0.13,0.03-0.26,0.08-0.39c0.05-0.13,0.13-0.26,0.23-0.37c0.1-0.11,0.22-0.2,0.37-0.28c0.15-0.07,0.32-0.11,0.51-0.11
			c0.19,0,0.36,0.04,0.51,0.11c0.15,0.07,0.28,0.16,0.38,0.28s0.18,0.24,0.24,0.37s0.08,0.27,0.08,0.39c0,0.31-0.1,0.58-0.31,0.8
			s-0.51,0.33-0.9,0.33c-0.18,0-0.34-0.03-0.48-0.1c-0.14-0.07-0.27-0.16-0.37-0.26c-0.11-0.11-0.19-0.23-0.25-0.36
			S155.51,52.16,155.51,52.03z"/>
		<path class="st0" d="M161.97,59.42c-0.4,0-0.78-0.06-1.15-0.18c-0.37-0.12-0.7-0.31-0.98-0.56c-0.29-0.25-0.51-0.56-0.68-0.93
			s-0.25-0.81-0.25-1.3c0-0.47,0.09-0.89,0.26-1.25c0.17-0.36,0.4-0.67,0.68-0.91c0.28-0.25,0.6-0.43,0.97-0.56s0.73-0.19,1.11-0.19
			c0.43,0,0.84,0.07,1.21,0.21c0.37,0.14,0.7,0.34,0.97,0.59c0.28,0.26,0.49,0.57,0.64,0.94s0.23,0.79,0.23,1.26
			c0,0.46-0.08,0.87-0.24,1.23c-0.16,0.36-0.37,0.66-0.64,0.9c-0.27,0.25-0.59,0.43-0.95,0.56S162.38,59.42,161.97,59.42z
			 M161.97,57.99c0.12,0,0.22-0.04,0.31-0.11c0.09-0.07,0.17-0.18,0.24-0.31c0.07-0.13,0.12-0.29,0.15-0.48s0.05-0.38,0.05-0.59
			s-0.02-0.41-0.06-0.59c-0.04-0.18-0.09-0.34-0.15-0.48c-0.07-0.13-0.15-0.24-0.25-0.32s-0.21-0.12-0.35-0.12
			c-0.11,0-0.21,0.04-0.3,0.11c-0.09,0.08-0.17,0.18-0.24,0.31c-0.07,0.13-0.12,0.29-0.16,0.47c-0.04,0.18-0.06,0.37-0.06,0.57
			c0,0.46,0.08,0.83,0.23,1.11C161.54,57.85,161.73,57.99,161.97,57.99z"/>
		<path class="st0" d="M168.97,59.28h-3.39v-1.47h0.46v-2.68h-0.46v-1.46h2.34l0.25,0.7c0.19-0.26,0.41-0.48,0.67-0.65
			c0.25-0.17,0.56-0.25,0.91-0.25c0.42,0,0.77,0.07,1.03,0.22c0.26,0.15,0.46,0.34,0.6,0.57c0.14,0.24,0.24,0.5,0.29,0.8
			c0.05,0.29,0.07,0.59,0.07,0.88v1.87h0.52v1.47h-2.77v-3.06c0-0.1,0-0.21,0-0.33c0-0.12-0.02-0.23-0.06-0.34
			c-0.04-0.1-0.1-0.19-0.18-0.27c-0.08-0.07-0.21-0.11-0.37-0.11c-0.14,0-0.25,0.03-0.35,0.1s-0.16,0.15-0.21,0.25
			c-0.05,0.1-0.09,0.21-0.1,0.34c-0.02,0.12-0.03,0.25-0.03,0.37v1.59h0.79V59.28z"/>
		<path class="st0" d="M173.04,54.14c0.11-0.07,0.25-0.15,0.42-0.24c0.17-0.09,0.36-0.18,0.57-0.26s0.43-0.16,0.67-0.21
			c0.24-0.06,0.49-0.08,0.74-0.08c0.33,0,0.67,0.04,1.02,0.11c0.35,0.07,0.67,0.19,0.96,0.37s0.53,0.41,0.71,0.71
			c0.19,0.3,0.28,0.67,0.28,1.12v2.19h0.66v1.44h-2.35l-0.26-0.5c-0.1,0.14-0.22,0.26-0.35,0.35c-0.13,0.09-0.26,0.17-0.4,0.22
			c-0.14,0.05-0.27,0.09-0.4,0.11s-0.25,0.03-0.34,0.03c-0.26,0-0.52-0.04-0.78-0.11c-0.26-0.07-0.49-0.19-0.69-0.34
			c-0.21-0.15-0.37-0.34-0.5-0.58c-0.13-0.24-0.19-0.52-0.19-0.85c0-0.31,0.06-0.6,0.18-0.85c0.12-0.25,0.29-0.47,0.5-0.65
			s0.45-0.32,0.73-0.42c0.28-0.1,0.57-0.15,0.88-0.15c0.16,0,0.31,0.02,0.43,0.05c0.13,0.03,0.24,0.07,0.33,0.12
			s0.17,0.09,0.22,0.13s0.09,0.08,0.1,0.09v-0.39c0-0.25-0.1-0.42-0.3-0.5s-0.45-0.12-0.75-0.12c-0.33,0-0.63,0.06-0.91,0.17
			c-0.28,0.11-0.52,0.23-0.73,0.35L173.04,54.14z M175.48,58.03c0.17,0,0.32-0.04,0.44-0.12c0.12-0.08,0.21-0.17,0.26-0.25v-0.43
			c-0.01-0.01-0.02-0.04-0.05-0.07c-0.03-0.03-0.06-0.07-0.12-0.11c-0.05-0.04-0.12-0.07-0.19-0.1s-0.17-0.04-0.29-0.04
			c-0.22,0-0.38,0.06-0.48,0.17s-0.15,0.25-0.15,0.43c0,0.16,0.05,0.28,0.17,0.38C175.18,57.98,175.32,58.03,175.48,58.03z"/>
		<path class="st0" d="M182.95,59.28h-3.21v-1.47h0.47v-5.5h-0.46v-1.45h2.55v6.95h0.65V59.28z"/>
		<path class="st0" d="M186.58,51.43h3.56c0.64,0,1.16,0.07,1.55,0.2c0.4,0.13,0.7,0.31,0.92,0.53c0.22,0.22,0.37,0.48,0.45,0.76
			s0.12,0.59,0.12,0.91c0,0.37-0.08,0.7-0.23,0.98c-0.15,0.28-0.36,0.51-0.63,0.69c-0.26,0.18-0.57,0.32-0.92,0.42
			c-0.35,0.09-0.72,0.14-1.12,0.14h-0.84v1.74h0.67v1.48h-3.54v-1.48h0.62V52.9h-0.62V51.43z M189.46,52.89v1.95h0.49
			c0.32,0,0.58-0.08,0.78-0.24s0.3-0.39,0.3-0.69c0-0.34-0.09-0.59-0.27-0.76s-0.43-0.26-0.75-0.26H189.46z"/>
		<path class="st0" d="M196.96,59.28h-3.11v-1.47h0.48v-2.68h-0.47v-1.46h2.07l0.33,0.72c0.07-0.13,0.15-0.26,0.23-0.38
			c0.08-0.12,0.18-0.23,0.31-0.32c0.12-0.09,0.28-0.17,0.46-0.22c0.18-0.05,0.42-0.08,0.7-0.08v2.02c-0.5,0-0.88,0.08-1.15,0.25
			s-0.4,0.5-0.4,0.99v1.16h0.55V59.28z"/>
		<path class="st0" d="M201.53,59.42c-0.4,0-0.78-0.06-1.15-0.18c-0.37-0.12-0.7-0.31-0.98-0.56c-0.29-0.25-0.51-0.56-0.68-0.93
			s-0.25-0.81-0.25-1.3c0-0.47,0.09-0.89,0.26-1.25c0.17-0.36,0.4-0.67,0.68-0.91c0.28-0.25,0.6-0.43,0.97-0.56s0.73-0.19,1.11-0.19
			c0.43,0,0.84,0.07,1.21,0.21c0.37,0.14,0.7,0.34,0.97,0.59c0.28,0.26,0.49,0.57,0.64,0.94s0.23,0.79,0.23,1.26
			c0,0.46-0.08,0.87-0.24,1.23c-0.16,0.36-0.37,0.66-0.64,0.9c-0.27,0.25-0.59,0.43-0.95,0.56S201.95,59.42,201.53,59.42z
			 M201.53,57.99c0.12,0,0.22-0.04,0.31-0.11c0.09-0.07,0.17-0.18,0.24-0.31c0.07-0.13,0.12-0.29,0.15-0.48s0.05-0.38,0.05-0.59
			s-0.02-0.41-0.06-0.59c-0.04-0.18-0.09-0.34-0.15-0.48c-0.07-0.13-0.15-0.24-0.25-0.32s-0.21-0.12-0.35-0.12
			c-0.11,0-0.21,0.04-0.3,0.11c-0.09,0.08-0.17,0.18-0.24,0.31c-0.07,0.13-0.12,0.29-0.16,0.47c-0.04,0.18-0.06,0.37-0.06,0.57
			c0,0.46,0.08,0.83,0.23,1.11C201.1,57.85,201.3,57.99,201.53,57.99z"/>
		<path class="st0" d="M206.28,55.12h-0.46v-1.46h2.55v4.82c0,0.35-0.04,0.71-0.11,1.08s-0.23,0.7-0.46,1.01s-0.57,0.56-1.01,0.75
			c-0.44,0.19-1.03,0.29-1.76,0.29v-1.5c0.31,0,0.56-0.06,0.73-0.18c0.17-0.12,0.3-0.26,0.37-0.43c0.08-0.17,0.12-0.35,0.13-0.53
			c0.01-0.19,0.02-0.35,0.02-0.48V55.12z M206.13,52.03c0-0.13,0.03-0.26,0.08-0.39c0.05-0.13,0.13-0.26,0.23-0.37
			c0.1-0.11,0.22-0.2,0.37-0.28c0.15-0.07,0.32-0.11,0.51-0.11c0.19,0,0.36,0.04,0.51,0.11c0.15,0.07,0.28,0.16,0.38,0.28
			s0.18,0.24,0.24,0.37s0.08,0.27,0.08,0.39c0,0.31-0.1,0.58-0.31,0.8s-0.51,0.33-0.9,0.33c-0.18,0-0.34-0.03-0.48-0.1
			c-0.14-0.07-0.27-0.16-0.37-0.26c-0.11-0.11-0.19-0.23-0.25-0.36S206.13,52.16,206.13,52.03z"/>
		<path class="st0" d="M214.85,58.5c-0.41,0.36-0.84,0.61-1.3,0.76c-0.46,0.15-0.97,0.22-1.54,0.22c-0.34,0-0.69-0.06-1.03-0.17
			c-0.34-0.12-0.65-0.3-0.93-0.54c-0.27-0.24-0.5-0.56-0.68-0.94c-0.18-0.38-0.26-0.85-0.26-1.39c0-0.46,0.08-0.87,0.23-1.23
			c0.15-0.36,0.36-0.67,0.63-0.92c0.26-0.25,0.58-0.45,0.93-0.58s0.75-0.2,1.17-0.2c0.46,0,0.86,0.07,1.21,0.2
			c0.35,0.13,0.64,0.32,0.87,0.56s0.41,0.52,0.53,0.85c0.12,0.33,0.18,0.68,0.18,1.06c0,0.15-0.01,0.3-0.03,0.44
			c-0.02,0.15-0.05,0.28-0.1,0.41h-3.46c0.01,0.08,0.04,0.17,0.07,0.27s0.09,0.21,0.17,0.3c0.08,0.1,0.19,0.18,0.33,0.25
			c0.14,0.07,0.33,0.1,0.56,0.1c0.09,0,0.2,0,0.31-0.01s0.24-0.03,0.37-0.07c0.13-0.04,0.27-0.09,0.42-0.16
			c0.15-0.07,0.29-0.17,0.44-0.3L214.85,58.5z M212.14,55.02c-0.17,0-0.31,0.03-0.41,0.1c-0.11,0.07-0.19,0.15-0.25,0.24
			c-0.06,0.09-0.11,0.19-0.13,0.3c-0.03,0.1-0.04,0.19-0.05,0.26h1.66c0-0.1-0.01-0.21-0.03-0.32c-0.02-0.11-0.06-0.21-0.12-0.29
			c-0.05-0.09-0.14-0.16-0.24-0.21C212.45,55.05,212.31,55.02,212.14,55.02z"/>
		<path class="st0" d="M219.2,56.2c-0.01-0.13-0.02-0.27-0.05-0.41c-0.03-0.14-0.06-0.27-0.12-0.38c-0.05-0.12-0.12-0.21-0.21-0.28
			s-0.19-0.11-0.32-0.11c-0.16,0-0.3,0.04-0.42,0.12c-0.12,0.08-0.22,0.19-0.3,0.33c-0.08,0.13-0.14,0.29-0.18,0.46
			c-0.04,0.17-0.06,0.35-0.06,0.53c0,0.38,0.1,0.7,0.31,0.95c0.21,0.25,0.49,0.38,0.86,0.38c0.28,0,0.52-0.06,0.73-0.17
			c0.21-0.12,0.4-0.27,0.57-0.47l0.97,1.14c-0.13,0.14-0.29,0.28-0.47,0.42s-0.39,0.26-0.62,0.36c-0.23,0.11-0.48,0.19-0.75,0.26
			c-0.27,0.07-0.55,0.1-0.85,0.1c-0.4,0-0.79-0.06-1.16-0.18c-0.37-0.12-0.69-0.31-0.96-0.56c-0.28-0.25-0.5-0.56-0.66-0.94
			s-0.25-0.81-0.25-1.31c0-0.49,0.08-0.92,0.23-1.28c0.15-0.36,0.35-0.66,0.6-0.9s0.54-0.41,0.86-0.52
			c0.33-0.11,0.67-0.17,1.02-0.17c0.18,0,0.35,0.02,0.5,0.07s0.28,0.1,0.4,0.17c0.11,0.07,0.21,0.14,0.29,0.21
			c0.08,0.07,0.14,0.14,0.19,0.19l0.19-0.54h1.3v2.54H219.2z"/>
		<path class="st0" d="M221.46,53.67h0.59v-1.03l2.02-0.66v1.69h1.04v1.46h-1.04v2c0,0.05,0,0.11-0.01,0.16c0,0.05,0,0.11,0,0.17
			c0,0.15,0.02,0.28,0.06,0.4c0.04,0.12,0.14,0.17,0.3,0.17c0.07,0,0.18-0.02,0.33-0.06c0.14-0.04,0.27-0.08,0.37-0.13v1.44
			c-0.08,0.04-0.18,0.07-0.31,0.09c-0.12,0.03-0.25,0.05-0.38,0.06c-0.13,0.02-0.25,0.03-0.37,0.04c-0.11,0.01-0.2,0.02-0.27,0.02
			c-0.41,0-0.73-0.06-0.96-0.17c-0.23-0.11-0.4-0.27-0.51-0.47c-0.11-0.2-0.18-0.45-0.21-0.74c-0.03-0.29-0.05-0.62-0.06-0.98v-2
			h-0.59V53.67z"/>
	</g>
</g>
</svg>
