<?xml version="1.0" encoding="utf-8"?>
<!-- Generator: Adobe Illustrator 25.2.2, SVG Export Plug-In . SVG Version: 6.00 Build 0)  -->
<svg version="1.1" xmlns="http://www.w3.org/2000/svg" xmlns:xlink="http://www.w3.org/1999/xlink" x="0px" y="0px"
	 viewBox="0 0 243.56 89.74" style="enable-background:new 0 0 243.56 89.74;" xml:space="preserve">
<style type="text/css">
	.st0{fill:#FFFFFF;}
	.st1{font-family:'Hind-Bold';}
	.st2{font-size:18.7px;}
	.st3{fill:#008D36;}
</style>
<g id="Calque_4">
</g>
<g id="Calque_2">
	<text transform="matrix(1 0 0 1 0.9531 86.4356)" class="st0 st1 st2">Earthworks Project Solutions</text>
</g>
<g id="Calque_3">
	<g>
		<polygon class="st0" points="26.15,20.58 44.65,43.53 31.09,43.53 17.85,25.47 		"/>
		<path class="st3" d="M43.84,1.01h-9.91C29,14.84,15.89,24.23,0.94,24.23v9.46C21.05,33.7,38.54,20.31,43.84,1.01z"/>
		<path class="st0" d="M17.33,22.02v21.51H6.08V1.01h11.25v18.44V22.02z"/>
		<path class="st0" d="M98.66,1.01v42.51h-9.99l-0.32-24.88l-8.63,14.57h-8.5l-8.03-14.88l-0.01,25.19h-10.9V1.01H62.9l12.57,20.82
			L88.03,1.01H98.66z"/>
		<path class="st0" d="M139.92,8.95h-11.56v34.57H117.1V8.95h-11.56V1.01h34.38V8.95z"/>
		<path class="st0" d="M177.75,4.39c2.79,2.25,4.19,5.82,4.19,10.69s-1.4,8.44-4.19,10.69c-2.79,2.25-7.23,3.38-13.32,3.38h-6.37
			v14.38H146.8V1.01h17.63C170.51,1.01,174.95,2.14,177.75,4.39z M169.24,19.8c0.96-0.98,1.44-2.55,1.44-4.72
			c0-2.21-0.48-3.8-1.44-4.78s-2.56-1.47-4.82-1.47h-6.37v12.51h6.37C166.68,21.29,168.29,20.78,169.24,19.8z"/>
	</g>
	<g>
		<path class="st0" d="M83.4,51.43h3.65v1.48h-0.68v4.87h0.68v1.49H83.4v-1.49h0.69v-4.87H83.4V51.43z"/>
		<path class="st0" d="M91.21,59.28h-3.39v-1.47h0.46v-2.68h-0.46v-1.46h2.34l0.25,0.7c0.19-0.26,0.41-0.48,0.67-0.65
			c0.25-0.17,0.56-0.25,0.91-0.25c0.42,0,0.77,0.07,1.03,0.22s0.46,0.34,0.6,0.57c0.14,0.24,0.24,0.5,0.29,0.8
			c0.05,0.29,0.07,0.59,0.07,0.88v1.87h0.52v1.47h-2.77v-3.06c0-0.1,0-0.21,0-0.33c0-0.12-0.02-0.23-0.06-0.34
			c-0.04-0.1-0.1-0.19-0.18-0.27c-0.08-0.07-0.21-0.11-0.37-0.11c-0.14,0-0.25,0.03-0.35,0.1s-0.16,0.15-0.21,0.25
			c-0.05,0.1-0.09,0.21-0.1,0.34c-0.02,0.12-0.03,0.25-0.03,0.37v1.59h0.79v1.46H91.21z"/>
		<path class="st0" d="M95.05,53.67h0.59v-1.03l2.02-0.66v1.69h1.04v1.46h-1.04v2c0,0.05,0,0.11-0.01,0.16c0,0.05,0,0.11,0,0.17
			c0,0.15,0.02,0.28,0.06,0.4c0.04,0.12,0.14,0.17,0.3,0.17c0.07,0,0.18-0.02,0.33-0.06c0.14-0.04,0.27-0.08,0.37-0.13v1.44
			c-0.08,0.04-0.18,0.07-0.31,0.09c-0.12,0.03-0.25,0.05-0.38,0.06c-0.13,0.02-0.25,0.03-0.37,0.04c-0.11,0.01-0.2,0.02-0.27,0.02
			c-0.41,0-0.73-0.06-0.96-0.17c-0.23-0.11-0.4-0.27-0.51-0.47s-0.18-0.45-0.21-0.74s-0.05-0.62-0.06-0.98v-2h-0.59
			C95.05,55.13,95.05,53.67,95.05,53.67z"/>
		<path class="st0" d="M104.9,58.5c-0.41,0.36-0.84,0.61-1.3,0.76c-0.46,0.15-0.97,0.22-1.54,0.22c-0.34,0-0.69-0.06-1.03-0.17
			c-0.34-0.12-0.65-0.3-0.93-0.54c-0.27-0.24-0.5-0.56-0.68-0.94c-0.18-0.38-0.26-0.85-0.26-1.39c0-0.46,0.08-0.87,0.23-1.23
			s0.36-0.67,0.63-0.92c0.26-0.25,0.58-0.45,0.93-0.58s0.75-0.2,1.17-0.2c0.46,0,0.86,0.07,1.21,0.2s0.64,0.32,0.87,0.56
			s0.41,0.52,0.53,0.85c0.12,0.33,0.18,0.68,0.18,1.06c0,0.15-0.01,0.3-0.03,0.44c-0.02,0.15-0.05,0.28-0.1,0.41h-3.46
			c0.01,0.08,0.04,0.17,0.07,0.27s0.09,0.21,0.17,0.3c0.08,0.1,0.19,0.18,0.33,0.25s0.33,0.1,0.56,0.1c0.09,0,0.2,0,0.31-0.01
			s0.24-0.03,0.37-0.07c0.13-0.04,0.27-0.09,0.42-0.16s0.29-0.17,0.44-0.3L104.9,58.5z M102.18,55.02c-0.17,0-0.31,0.03-0.41,0.1
			c-0.11,0.07-0.19,0.15-0.25,0.24s-0.11,0.19-0.13,0.3c-0.03,0.1-0.04,0.19-0.05,0.26H103c0-0.1-0.01-0.21-0.03-0.32
			s-0.06-0.21-0.12-0.29c-0.05-0.09-0.14-0.16-0.24-0.21C102.5,55.05,102.36,55.02,102.18,55.02z"/>
		<path class="st0" d="M108.67,59.28h-3.11v-1.47h0.48v-2.68h-0.47v-1.46h2.07l0.33,0.72c0.07-0.13,0.15-0.26,0.23-0.38
			c0.08-0.12,0.18-0.23,0.31-0.32c0.12-0.09,0.28-0.17,0.46-0.22c0.18-0.05,0.42-0.08,0.7-0.08v2.02c-0.5,0-0.88,0.08-1.15,0.25
			s-0.4,0.5-0.4,0.99v1.16h0.55V59.28z"/>
		<path class="st0" d="M113.72,59.28h-3.39v-1.47h0.46v-2.68h-0.46v-1.46h2.34l0.25,0.7c0.19-0.26,0.41-0.48,0.67-0.65
			c0.25-0.17,0.56-0.25,0.91-0.25c0.42,0,0.77,0.07,1.03,0.22s0.46,0.34,0.6,0.57c0.14,0.24,0.24,0.5,0.29,0.8
			c0.05,0.29,0.07,0.59,0.07,0.88v1.87h0.52v1.47h-2.77v-3.06c0-0.1,0-0.21,0-0.33c0-0.12-0.02-0.23-0.06-0.34
			c-0.04-0.1-0.1-0.19-0.18-0.27c-0.08-0.07-0.21-0.11-0.37-0.11c-0.14,0-0.25,0.03-0.35,0.1s-0.16,0.15-0.21,0.25
			c-0.05,0.1-0.09,0.21-0.1,0.34c-0.02,0.12-0.03,0.25-0.03,0.37v1.59h0.79v1.46H113.72z"/>
		<path class="st0" d="M117.79,54.14c0.11-0.07,0.25-0.15,0.42-0.24s0.36-0.18,0.57-0.26s0.43-0.16,0.67-0.21
			c0.24-0.06,0.49-0.08,0.74-0.08c0.33,0,0.67,0.04,1.02,0.11s0.67,0.19,0.96,0.37s0.53,0.41,0.71,0.71
			c0.19,0.3,0.28,0.67,0.28,1.12v2.19h0.66v1.44h-2.35l-0.26-0.5c-0.1,0.14-0.22,0.26-0.35,0.35s-0.26,0.17-0.4,0.22
			c-0.14,0.05-0.27,0.09-0.4,0.11s-0.25,0.03-0.34,0.03c-0.26,0-0.52-0.04-0.78-0.11s-0.49-0.19-0.69-0.34
			c-0.21-0.15-0.37-0.34-0.5-0.58s-0.19-0.52-0.19-0.85c0-0.31,0.06-0.6,0.18-0.85s0.29-0.47,0.5-0.65s0.45-0.32,0.73-0.42
			c0.28-0.1,0.57-0.15,0.88-0.15c0.16,0,0.31,0.02,0.43,0.05c0.13,0.03,0.24,0.07,0.33,0.12s0.17,0.09,0.22,0.13s0.09,0.08,0.1,0.09
			v-0.39c0-0.25-0.1-0.42-0.3-0.5s-0.45-0.12-0.75-0.12c-0.33,0-0.63,0.06-0.91,0.17c-0.28,0.11-0.52,0.23-0.73,0.35L117.79,54.14z
			 M120.23,58.03c0.17,0,0.32-0.04,0.44-0.12c0.12-0.08,0.21-0.17,0.26-0.25v-0.43c-0.01-0.01-0.02-0.04-0.05-0.07
			c-0.03-0.03-0.06-0.07-0.12-0.11c-0.05-0.04-0.12-0.07-0.19-0.1s-0.17-0.04-0.29-0.04c-0.22,0-0.38,0.06-0.48,0.17
			s-0.15,0.25-0.15,0.43c0,0.16,0.05,0.28,0.17,0.38C119.92,57.98,120.06,58.03,120.23,58.03z"/>
		<path class="st0" d="M124.38,53.67h0.59v-1.03l2.02-0.66v1.69h1.04v1.46H127v2c0,0.05,0,0.11-0.01,0.16c0,0.05,0,0.11,0,0.17
			c0,0.15,0.02,0.28,0.06,0.4c0.04,0.12,0.14,0.17,0.3,0.17c0.07,0,0.18-0.02,0.33-0.06c0.14-0.04,0.27-0.08,0.37-0.13v1.44
			c-0.08,0.04-0.18,0.07-0.31,0.09c-0.12,0.03-0.25,0.05-0.38,0.06c-0.13,0.02-0.25,0.03-0.37,0.04c-0.11,0.01-0.2,0.02-0.27,0.02
			c-0.41,0-0.73-0.06-0.96-0.17c-0.23-0.11-0.4-0.27-0.51-0.47s-0.18-0.45-0.21-0.74s-0.05-0.62-0.06-0.98v-2h-0.59v-1.46H124.38z"
			/>
		<path class="st0" d="M131.78,59.28h-3.08v-1.47h0.46v-2.68h-0.46v-1.46h2.55v4.14h0.53V59.28z M129.01,52.03
			c0-0.13,0.03-0.26,0.08-0.39s0.13-0.26,0.23-0.37c0.1-0.11,0.22-0.2,0.37-0.28c0.15-0.07,0.32-0.11,0.51-0.11
			c0.19,0,0.36,0.04,0.51,0.11s0.28,0.16,0.38,0.28s0.18,0.24,0.24,0.37s0.08,0.27,0.08,0.39c0,0.31-0.1,0.58-0.31,0.8
			s-0.51,0.33-0.9,0.33c-0.18,0-0.34-0.03-0.48-0.1s-0.27-0.16-0.37-0.26c-0.11-0.11-0.19-0.23-0.25-0.36S129.01,52.16,129.01,52.03
			z"/>
		<path class="st0" d="M135.47,59.42c-0.4,0-0.78-0.06-1.15-0.18s-0.7-0.31-0.98-0.56c-0.29-0.25-0.51-0.56-0.68-0.93
			s-0.25-0.81-0.25-1.3c0-0.47,0.09-0.89,0.26-1.25s0.4-0.67,0.68-0.91c0.28-0.25,0.6-0.43,0.97-0.56s0.73-0.19,1.11-0.19
			c0.43,0,0.84,0.07,1.21,0.21c0.37,0.14,0.7,0.34,0.97,0.59c0.28,0.26,0.49,0.57,0.64,0.94s0.23,0.79,0.23,1.26
			c0,0.46-0.08,0.87-0.24,1.23s-0.37,0.66-0.64,0.9c-0.27,0.25-0.59,0.43-0.95,0.56S135.88,59.42,135.47,59.42z M135.47,57.99
			c0.12,0,0.22-0.04,0.31-0.11s0.17-0.18,0.24-0.31s0.12-0.29,0.15-0.48s0.05-0.38,0.05-0.59s-0.02-0.41-0.06-0.59
			s-0.09-0.34-0.15-0.48c-0.07-0.13-0.15-0.24-0.25-0.32s-0.21-0.12-0.35-0.12c-0.11,0-0.21,0.04-0.3,0.11
			c-0.09,0.08-0.17,0.18-0.24,0.31s-0.12,0.29-0.16,0.47c-0.04,0.18-0.06,0.37-0.06,0.57c0,0.46,0.08,0.83,0.23,1.11
			C135.04,57.85,135.23,57.99,135.47,57.99z"/>
		<path class="st0" d="M142.47,59.28h-3.39v-1.47h0.46v-2.68h-0.46v-1.46h2.34l0.25,0.7c0.19-0.26,0.41-0.48,0.67-0.65
			c0.25-0.17,0.56-0.25,0.91-0.25c0.42,0,0.77,0.07,1.03,0.22s0.46,0.34,0.6,0.57c0.14,0.24,0.24,0.5,0.29,0.8
			c0.05,0.29,0.07,0.59,0.07,0.88v1.87h0.52v1.47h-2.77v-3.06c0-0.1,0-0.21,0-0.33c0-0.12-0.02-0.23-0.06-0.34
			c-0.04-0.1-0.1-0.19-0.18-0.27c-0.08-0.07-0.21-0.11-0.37-0.11c-0.14,0-0.25,0.03-0.35,0.1s-0.16,0.15-0.21,0.25
			s-0.09,0.21-0.1,0.34c-0.02,0.12-0.03,0.25-0.03,0.37v1.59h0.79L142.47,59.28L142.47,59.28z"/>
		<path class="st0" d="M146.54,54.14c0.11-0.07,0.25-0.15,0.42-0.24s0.36-0.18,0.57-0.26s0.43-0.16,0.67-0.21
			c0.24-0.06,0.49-0.08,0.74-0.08c0.33,0,0.67,0.04,1.02,0.11s0.67,0.19,0.96,0.37s0.53,0.41,0.71,0.71
			c0.19,0.3,0.28,0.67,0.28,1.12v2.19h0.66v1.44h-2.35l-0.26-0.5c-0.1,0.14-0.22,0.26-0.35,0.35s-0.26,0.17-0.4,0.22
			c-0.14,0.05-0.27,0.09-0.4,0.11s-0.25,0.03-0.34,0.03c-0.26,0-0.52-0.04-0.78-0.11s-0.49-0.19-0.69-0.34
			c-0.21-0.15-0.37-0.34-0.5-0.58s-0.19-0.52-0.19-0.85c0-0.31,0.06-0.6,0.18-0.85s0.29-0.47,0.5-0.65s0.45-0.32,0.73-0.42
			s0.57-0.15,0.88-0.15c0.16,0,0.31,0.02,0.43,0.05c0.13,0.03,0.24,0.07,0.33,0.12s0.17,0.09,0.22,0.13s0.09,0.08,0.1,0.09v-0.39
			c0-0.25-0.1-0.42-0.3-0.5s-0.45-0.12-0.75-0.12c-0.33,0-0.63,0.06-0.91,0.17c-0.28,0.11-0.52,0.23-0.73,0.35L146.54,54.14z
			 M148.98,58.03c0.17,0,0.32-0.04,0.44-0.12c0.12-0.08,0.21-0.17,0.26-0.25v-0.43c-0.01-0.01-0.02-0.04-0.05-0.07
			s-0.06-0.07-0.12-0.11c-0.05-0.04-0.12-0.07-0.19-0.1s-0.17-0.04-0.29-0.04c-0.22,0-0.38,0.06-0.48,0.17s-0.15,0.25-0.15,0.43
			c0,0.16,0.05,0.28,0.17,0.38C148.68,57.98,148.82,58.03,148.98,58.03z"/>
		<path class="st0" d="M156.45,59.28h-3.21v-1.47h0.47v-5.5h-0.46v-1.45h2.55v6.95h0.65L156.45,59.28L156.45,59.28z"/>
		<path class="st0" d="M160.08,51.43h3.56c0.64,0,1.16,0.07,1.55,0.2c0.4,0.13,0.7,0.31,0.92,0.53c0.22,0.22,0.37,0.48,0.45,0.76
			s0.12,0.59,0.12,0.91c0,0.37-0.08,0.7-0.23,0.98s-0.36,0.51-0.63,0.69c-0.26,0.18-0.57,0.32-0.92,0.42
			c-0.35,0.09-0.72,0.14-1.12,0.14h-0.84v1.74h0.67v1.48h-3.54V57.8h0.62v-4.9h-0.62L160.08,51.43L160.08,51.43z M162.96,52.89v1.95
			h0.49c0.32,0,0.58-0.08,0.78-0.24s0.3-0.39,0.3-0.69c0-0.34-0.09-0.59-0.27-0.76s-0.43-0.26-0.75-0.26
			C163.51,52.89,162.96,52.89,162.96,52.89z"/>
		<path class="st0" d="M170.46,59.28h-3.11v-1.47h0.48v-2.68h-0.47v-1.46h2.07l0.33,0.72c0.07-0.13,0.15-0.26,0.23-0.38
			c0.08-0.12,0.18-0.23,0.31-0.32c0.12-0.09,0.28-0.17,0.46-0.22c0.18-0.05,0.42-0.08,0.7-0.08v2.02c-0.5,0-0.88,0.08-1.15,0.25
			s-0.4,0.5-0.4,0.99v1.16h0.55L170.46,59.28L170.46,59.28z"/>
		<path class="st0" d="M175.03,59.42c-0.4,0-0.78-0.06-1.15-0.18s-0.7-0.31-0.98-0.56c-0.29-0.25-0.51-0.56-0.68-0.93
			s-0.25-0.81-0.25-1.3c0-0.47,0.09-0.89,0.26-1.25s0.4-0.67,0.68-0.91c0.28-0.25,0.6-0.43,0.97-0.56s0.73-0.19,1.11-0.19
			c0.43,0,0.84,0.07,1.21,0.21c0.37,0.14,0.7,0.34,0.97,0.59c0.28,0.26,0.49,0.57,0.64,0.94s0.23,0.79,0.23,1.26
			c0,0.46-0.08,0.87-0.24,1.23s-0.37,0.66-0.64,0.9c-0.27,0.25-0.59,0.43-0.95,0.56S175.45,59.42,175.03,59.42z M175.03,57.99
			c0.12,0,0.22-0.04,0.31-0.11s0.17-0.18,0.24-0.31s0.12-0.29,0.15-0.48s0.05-0.38,0.05-0.59s-0.02-0.41-0.06-0.59
			s-0.09-0.34-0.15-0.48c-0.07-0.13-0.15-0.24-0.25-0.32s-0.21-0.12-0.35-0.12c-0.11,0-0.21,0.04-0.3,0.11
			c-0.09,0.08-0.17,0.18-0.24,0.31s-0.12,0.29-0.16,0.47c-0.04,0.18-0.06,0.37-0.06,0.57c0,0.46,0.08,0.83,0.23,1.11
			C174.6,57.85,174.8,57.99,175.03,57.99z"/>
		<path class="st0" d="M179.78,55.12h-0.46v-1.46h2.55v4.82c0,0.35-0.04,0.71-0.11,1.08s-0.23,0.7-0.46,1.01s-0.57,0.56-1.01,0.75
			c-0.44,0.19-1.03,0.29-1.76,0.29v-1.5c0.31,0,0.56-0.06,0.73-0.18s0.3-0.26,0.37-0.43c0.08-0.17,0.12-0.35,0.13-0.53
			c0.01-0.19,0.02-0.35,0.02-0.48V55.12z M179.63,52.03c0-0.13,0.03-0.26,0.08-0.39s0.13-0.26,0.23-0.37
			c0.1-0.11,0.22-0.2,0.37-0.28c0.15-0.07,0.32-0.11,0.51-0.11c0.19,0,0.36,0.04,0.51,0.11s0.28,0.16,0.38,0.28s0.18,0.24,0.24,0.37
			s0.08,0.27,0.08,0.39c0,0.31-0.1,0.58-0.31,0.8s-0.51,0.33-0.9,0.33c-0.18,0-0.34-0.03-0.48-0.1s-0.27-0.16-0.37-0.26
			c-0.11-0.11-0.19-0.23-0.25-0.36S179.63,52.16,179.63,52.03z"/>
		<path class="st0" d="M188.35,58.5c-0.41,0.36-0.84,0.61-1.3,0.76c-0.46,0.15-0.97,0.22-1.54,0.22c-0.34,0-0.69-0.06-1.03-0.17
			c-0.34-0.12-0.65-0.3-0.93-0.54c-0.27-0.24-0.5-0.56-0.68-0.94c-0.18-0.38-0.26-0.85-0.26-1.39c0-0.46,0.08-0.87,0.23-1.23
			s0.36-0.67,0.63-0.92c0.26-0.25,0.58-0.45,0.93-0.58s0.75-0.2,1.17-0.2c0.46,0,0.86,0.07,1.21,0.2s0.64,0.32,0.87,0.56
			s0.41,0.52,0.53,0.85c0.12,0.33,0.18,0.68,0.18,1.06c0,0.15-0.01,0.3-0.03,0.44c-0.02,0.15-0.05,0.28-0.1,0.41h-3.46
			c0.01,0.08,0.04,0.17,0.07,0.27s0.09,0.21,0.17,0.3c0.08,0.1,0.19,0.18,0.33,0.25s0.33,0.1,0.56,0.1c0.09,0,0.2,0,0.31-0.01
			s0.24-0.03,0.37-0.07c0.13-0.04,0.27-0.09,0.42-0.16s0.29-0.17,0.44-0.3L188.35,58.5z M185.64,55.02c-0.17,0-0.31,0.03-0.41,0.1
			c-0.11,0.07-0.19,0.15-0.25,0.24s-0.11,0.19-0.13,0.3c-0.03,0.1-0.04,0.19-0.05,0.26h1.66c0-0.1-0.01-0.21-0.03-0.32
			s-0.06-0.21-0.12-0.29c-0.05-0.09-0.14-0.16-0.24-0.21C185.95,55.05,185.81,55.02,185.64,55.02z"/>
		<path class="st0" d="M192.7,56.2c-0.01-0.13-0.02-0.27-0.05-0.41s-0.06-0.27-0.12-0.38c-0.05-0.12-0.12-0.21-0.21-0.28
			s-0.19-0.11-0.32-0.11c-0.16,0-0.3,0.04-0.42,0.12c-0.12,0.08-0.22,0.19-0.3,0.33c-0.08,0.13-0.14,0.29-0.18,0.46
			s-0.06,0.35-0.06,0.53c0,0.38,0.1,0.7,0.31,0.95c0.21,0.25,0.49,0.38,0.86,0.38c0.28,0,0.52-0.06,0.73-0.17
			c0.21-0.12,0.4-0.27,0.57-0.47l0.97,1.14c-0.13,0.14-0.29,0.28-0.47,0.42s-0.39,0.26-0.62,0.36c-0.23,0.11-0.48,0.19-0.75,0.26
			s-0.55,0.1-0.85,0.1c-0.4,0-0.79-0.06-1.16-0.18c-0.37-0.12-0.69-0.31-0.96-0.56c-0.28-0.25-0.5-0.56-0.66-0.94
			s-0.25-0.81-0.25-1.31c0-0.49,0.08-0.92,0.23-1.28s0.35-0.66,0.6-0.9s0.54-0.41,0.86-0.52c0.33-0.11,0.67-0.17,1.02-0.17
			c0.18,0,0.35,0.02,0.5,0.07s0.28,0.1,0.4,0.17c0.11,0.07,0.21,0.14,0.29,0.21c0.08,0.07,0.14,0.14,0.19,0.19l0.19-0.54h1.3v2.54
			L192.7,56.2L192.7,56.2z"/>
		<path class="st0" d="M194.96,53.67h0.59v-1.03l2.02-0.66v1.69h1.04v1.46h-1.04v2c0,0.05,0,0.11-0.01,0.16c0,0.05,0,0.11,0,0.17
			c0,0.15,0.02,0.28,0.06,0.4c0.04,0.12,0.14,0.17,0.3,0.17c0.07,0,0.18-0.02,0.33-0.06c0.14-0.04,0.27-0.08,0.37-0.13v1.44
			c-0.08,0.04-0.18,0.07-0.31,0.09c-0.12,0.03-0.25,0.05-0.38,0.06c-0.13,0.02-0.25,0.03-0.37,0.04c-0.11,0.01-0.2,0.02-0.27,0.02
			c-0.41,0-0.73-0.06-0.96-0.17c-0.23-0.11-0.4-0.27-0.51-0.47s-0.18-0.45-0.21-0.74c-0.03-0.29-0.05-0.62-0.06-0.98v-2h-0.59V53.67
			z"/>
	</g>
</g>
</svg>
